<mxfile host="app.diagrams.net" agent="Mozilla/5.0 (X11; Linux x86_64; rv:130.0) Gecko/20100101 Firefox/130.0" version="24.7.12">
  <diagram name="Page-1" id="zTq97Z5halEBOHi2Op8s">
    <mxGraphModel dx="880" dy="478" grid="1" gridSize="10" guides="1" tooltips="1" connect="1" arrows="1" fold="1" page="1" pageScale="1" pageWidth="850" pageHeight="1100" math="0" shadow="0">
      <root>
        <mxCell id="0" />
        <mxCell id="1" parent="0" />
        <mxCell id="l_VvvLipR426Komhkc5C-1" value="GerenciarConsultasExames" style="swimlane;fontStyle=1;align=center;verticalAlign=top;childLayout=stackLayout;horizontal=1;startSize=26;horizontalStack=0;resizeParent=1;resizeParentMax=0;resizeLast=0;collapsible=1;marginBottom=0;whiteSpace=wrap;html=1;" vertex="1" parent="1">
          <mxGeometry x="125" y="170" width="600" height="160" as="geometry" />
        </mxCell>
        <mxCell id="l_VvvLipR426Komhkc5C-2" value="&lt;div&gt;+ hospital: Hospital&lt;/div&gt;&lt;div&gt;+ consultas: ArrayList&amp;lt;Consulta&amp;gt;&lt;/div&gt;&lt;div&gt;+ exames: ArrayList&amp;lt;Exame&amp;gt;&lt;br&gt;&lt;/div&gt;" style="text;strokeColor=none;fillColor=none;align=left;verticalAlign=top;spacingLeft=4;spacingRight=4;overflow=hidden;rotatable=0;points=[[0,0.5],[1,0.5]];portConstraint=eastwest;whiteSpace=wrap;html=1;" vertex="1" parent="l_VvvLipR426Komhkc5C-1">
          <mxGeometry y="26" width="600" height="54" as="geometry" />
        </mxCell>
        <mxCell id="l_VvvLipR426Komhkc5C-3" value="" style="line;strokeWidth=1;fillColor=none;align=left;verticalAlign=middle;spacingTop=-1;spacingLeft=3;spacingRight=3;rotatable=0;labelPosition=right;points=[];portConstraint=eastwest;strokeColor=inherit;" vertex="1" parent="l_VvvLipR426Komhkc5C-1">
          <mxGeometry y="80" width="600" height="8" as="geometry" />
        </mxCell>
        <mxCell id="l_VvvLipR426Komhkc5C-4" value="&lt;div&gt;+ agendarConsulta(String especialidade, Paciente p, Medico m, LocalDate data, LocalTime horario): Consulta&lt;/div&gt;&lt;div&gt;+ cancelarConsulta(Consulta c): boolean&lt;/div&gt;&lt;div&gt;+ agendarExame(String especialidade, Paciente p, Medico m, LocalDate data, LocalTime horario): Exame&lt;/div&gt;&lt;div&gt;+ cancelarExame(Exame e): boolean&lt;br&gt;&lt;/div&gt;" style="text;strokeColor=none;fillColor=none;align=left;verticalAlign=top;spacingLeft=4;spacingRight=4;overflow=hidden;rotatable=0;points=[[0,0.5],[1,0.5]];portConstraint=eastwest;whiteSpace=wrap;html=1;" vertex="1" parent="l_VvvLipR426Komhkc5C-1">
          <mxGeometry y="88" width="600" height="72" as="geometry" />
        </mxCell>
      </root>
    </mxGraphModel>
  </diagram>
</mxfile>
